<svg width="59" height="58" viewBox="0 0 59 58" fill="none" xmlns="http://www.w3.org/2000/svg">
<path d="M29.8335 54.375C23.1036 54.375 16.6494 51.7016 11.8907 46.9428C7.13193 42.1841 4.4585 35.7299 4.4585 29C4.4585 22.2701 7.13193 15.8159 11.8907 11.0572C16.6494 6.29843 23.1036 3.625 29.8335 3.625C36.5634 3.625 43.0176 6.29843 47.7763 11.0572C52.5351 15.8159 55.2085 22.2701 55.2085 29C55.2085 35.7299 52.5351 42.1841 47.7763 46.9428C43.0176 51.7016 36.5634 54.375 29.8335 54.375ZM29.8335 58C37.5248 58 44.901 54.9447 50.3396 49.5061C55.7781 44.0675 58.8335 36.6913 58.8335 29C58.8335 21.3087 55.7781 13.9325 50.3396 8.4939C44.901 3.05535 37.5248 0 29.8335 0C22.1422 0 14.766 3.05535 9.3274 8.4939C3.88884 13.9325 0.833496 21.3087 0.833496 29C0.833496 36.6913 3.88884 44.0675 9.3274 49.5061C14.766 54.9447 22.1422 58 29.8335 58Z" fill="#2B3B49"/>
<path d="M17.6751 16.8417C17.8434 16.6729 18.0434 16.539 18.2636 16.4476C18.4838 16.3562 18.7199 16.3092 18.9583 16.3092C19.1967 16.3092 19.4328 16.3562 19.653 16.4476C19.8732 16.539 20.0732 16.6729 20.2416 16.8417L29.8333 26.4371L39.4251 16.8417C39.5936 16.6732 39.7936 16.5395 40.0138 16.4483C40.234 16.3571 40.47 16.3102 40.7083 16.3102C40.9466 16.3102 41.1826 16.3571 41.4028 16.4483C41.623 16.5395 41.8231 16.6732 41.9916 16.8417C42.1601 17.0102 42.2938 17.2103 42.385 17.4305C42.4762 17.6506 42.5231 17.8866 42.5231 18.1249C42.5231 18.3633 42.4762 18.5993 42.385 18.8194C42.2938 19.0396 42.1601 19.2397 41.9916 19.4082L32.3962 28.9999L41.9916 38.5917C42.1601 38.7602 42.2938 38.9603 42.385 39.1805C42.4762 39.4006 42.5231 39.6366 42.5231 39.8749C42.5231 40.1133 42.4762 40.3493 42.385 40.5694C42.2938 40.7896 42.1601 40.9897 41.9916 41.1582C41.8231 41.3267 41.623 41.4604 41.4028 41.5516C41.1826 41.6428 40.9466 41.6897 40.7083 41.6897C40.47 41.6897 40.234 41.6428 40.0138 41.5516C39.7936 41.4604 39.5936 41.3267 39.4251 41.1582L29.8333 31.5628L20.2416 41.1582C20.073 41.3267 19.873 41.4604 19.6528 41.5516C19.4326 41.6428 19.1966 41.6897 18.9583 41.6897C18.72 41.6897 18.484 41.6428 18.2638 41.5516C18.0436 41.4604 17.8436 41.3267 17.6751 41.1582C17.5065 40.9897 17.3729 40.7896 17.2817 40.5694C17.1905 40.3493 17.1435 40.1133 17.1435 39.8749C17.1435 39.6366 17.1905 39.4006 17.2817 39.1805C17.3729 38.9603 17.5065 38.7602 17.6751 38.5917L27.2704 28.9999L17.6751 19.4082C17.5063 19.2398 17.3724 19.0398 17.281 18.8196C17.1896 18.5994 17.1426 18.3633 17.1426 18.1249C17.1426 17.8865 17.1896 17.6505 17.281 17.4303C17.3724 17.2101 17.5063 17.0101 17.6751 16.8417Z" fill="#2B3B49"/>
</svg>
