<svg width="48" height="48" viewBox="0 0 48 48" fill="none" xmlns="http://www.w3.org/2000/svg">
<path d="M47.4457 0.582439C47.1755 0.313799 46.8341 0.127803 46.4617 0.0463195C46.0892 -0.0351641 45.7012 -0.00874774 45.3433 0.122463L1.2922 16.1216C0.912299 16.2656 0.585224 16.5215 0.354418 16.8555C0.123612 17.1895 0 17.5857 0 17.9915C0 18.3974 0.123612 18.7936 0.354418 19.1276C0.585224 19.4616 0.912299 19.7175 1.2922 19.8614L18.4922 26.7211L31.1869 14.0017L34.0102 16.8216L21.2554 29.5609L28.1434 46.7401C28.2917 47.1122 28.5486 47.4312 28.8806 47.6559C29.2126 47.8805 29.6045 48.0004 30.0055 48C30.4102 47.9917 30.8028 47.8611 31.1316 47.6255C31.4605 47.3899 31.7101 47.0602 31.8477 46.6801L47.8662 2.68233C48.0027 2.3285 48.0356 1.94323 47.9611 1.57144C47.8867 1.19964 47.7079 0.856645 47.4457 0.582439Z" fill="#C2D6D0"/>
</svg>
